<svg width="100" height="100" viewBox="0 0 100 100" xmlns="http://www.w3.org/2000/svg">
  <defs>
    <pattern id="banana-leaf" patternUnits="userSpaceOnUse" width="100" height="100">
      <rect width="100" height="100" fill="#FFF3D9" />
      
      <!-- Banana leaf veins -->
      <path d="M 50 0 L 50 100" stroke="#2E7D32" stroke-width="2" />
      <path d="M 30 0 C 40 25, 40 75, 30 100" stroke="#2E7D32" stroke-width="1" />
      <path d="M 70 0 C 60 25, 60 75, 70 100" stroke="#2E7D32" stroke-width="1" />
      <path d="M 10 0 C 30 25, 30 75, 10 100" stroke="#2E7D32" stroke-width="0.5" />
      <path d="M 90 0 C 70 25, 70 75, 90 100" stroke="#2E7D32" stroke-width="0.5" />
      
      <!-- Horizontal veins -->
      <path d="M 0 20 L 100 20" stroke="#2E7D32" stroke-width="0.5" stroke-dasharray="2,2" />
      <path d="M 0 40 L 100 40" stroke="#2E7D32" stroke-width="0.5" stroke-dasharray="2,2" />
      <path d="M 0 60 L 100 60" stroke="#2E7D32" stroke-width="0.5" stroke-dasharray="2,2" />
      <path d="M 0 80 L 100 80" stroke="#2E7D32" stroke-width="0.5" stroke-dasharray="2,2" />
      
      <!-- Leaf texture -->
      <rect width="100" height="100" fill="#2E7D32" opacity="0.05" />
    </pattern>
  </defs>
  <rect width="100" height="100" fill="url(#banana-leaf)" />
</svg>
