<svg width="100" height="100" viewBox="0 0 100 100" xmlns="http://www.w3.org/2000/svg">
  <defs>
    <pattern id="mud-wall" patternUnits="userSpaceOnUse" width="100" height="100">
      <rect width="100" height="100" fill="#FFF3D9" />
      
      <!-- Mud wall texture -->
      <rect width="100" height="100" fill="#A97444" opacity="0.1" />
      
      <!-- Mud wall cracks and smudges -->
      <path d="M 10 10 C 20 15, 15 25, 25 30" stroke="#A97444" stroke-width="0.5" opacity="0.3" />
      <path d="M 40 15 C 50 25, 45 35, 55 40" stroke="#A97444" stroke-width="0.5" opacity="0.3" />
      <path d="M 70 10 C 80 20, 75 30, 85 35" stroke="#A97444" stroke-width="0.5" opacity="0.3" />
      
      <path d="M 15 50 C 25 55, 20 65, 30 70" stroke="#A97444" stroke-width="0.5" opacity="0.3" />
      <path d="M 45 55 C 55 65, 50 75, 60 80" stroke="#A97444" stroke-width="0.5" opacity="0.3" />
      <path d="M 75 50 C 85 60, 80 70, 90 75" stroke="#A97444" stroke-width="0.5" opacity="0.3" />
      
      <!-- Mud wall circles (smudges) -->
      <circle cx="20" cy="20" r="5" fill="#A97444" opacity="0.1" />
      <circle cx="50" cy="30" r="8" fill="#A97444" opacity="0.1" />
      <circle cx="80" cy="25" r="6" fill="#A97444" opacity="0.1" />
      
      <circle cx="30" cy="60" r="7" fill="#A97444" opacity="0.1" />
      <circle cx="60" cy="70" r="5" fill="#A97444" opacity="0.1" />
      <circle cx="85" cy="65" r="9" fill="#A97444" opacity="0.1" />
      
      <!-- Mud wall dots (small imperfections) -->
      <circle cx="15" cy="35" r="1" fill="#996515" opacity="0.2" />
      <circle cx="25" cy="45" r="0.8" fill="#996515" opacity="0.2" />
      <circle cx="35" cy="25" r="1.2" fill="#996515" opacity="0.2" />
      
      <circle cx="55" cy="15" r="0.9" fill="#996515" opacity="0.2" />
      <circle cx="65" cy="25" r="1.1" fill="#996515" opacity="0.2" />
      <circle cx="75" cy="35" r="0.7" fill="#996515" opacity="0.2" />
      
      <circle cx="25" cy="75" r="1" fill="#996515" opacity="0.2" />
      <circle cx="35" cy="85" r="0.8" fill="#996515" opacity="0.2" />
      <circle cx="45" cy="65" r="1.2" fill="#996515" opacity="0.2" />
      
      <circle cx="65" cy="55" r="0.9" fill="#996515" opacity="0.2" />
      <circle cx="75" cy="65" r="1.1" fill="#996515" opacity="0.2" />
      <circle cx="85" cy="75" r="0.7" fill="#996515" opacity="0.2" />
    </pattern>
  </defs>
  <rect width="100" height="100" fill="url(#mud-wall)" />
</svg>
