<svg width="100" height="100" viewBox="0 0 100 100" xmlns="http://www.w3.org/2000/svg">
  <defs>
    <pattern id="spice-grain" patternUnits="userSpaceOnUse" width="100" height="100">
      <rect width="100" height="100" fill="#FFF3D9" />
      
      <!-- Spice grains -->
      <circle cx="10" cy="10" r="1" fill="#996515" opacity="0.6" />
      <circle cx="20" cy="15" r="1.5" fill="#B71C1C" opacity="0.4" />
      <circle cx="30" cy="10" r="1" fill="#F4C430" opacity="0.5" />
      <circle cx="40" cy="15" r="0.8" fill="#996515" opacity="0.6" />
      <circle cx="50" cy="10" r="1.2" fill="#B71C1C" opacity="0.4" />
      <circle cx="60" cy="15" r="1" fill="#F4C430" opacity="0.5" />
      <circle cx="70" cy="10" r="0.7" fill="#996515" opacity="0.6" />
      <circle cx="80" cy="15" r="1.3" fill="#B71C1C" opacity="0.4" />
      <circle cx="90" cy="10" r="1" fill="#F4C430" opacity="0.5" />
      
      <circle cx="15" cy="25" r="1" fill="#996515" opacity="0.6" />
      <circle cx="25" cy="30" r="1.5" fill="#B71C1C" opacity="0.4" />
      <circle cx="35" cy="25" r="1" fill="#F4C430" opacity="0.5" />
      <circle cx="45" cy="30" r="0.8" fill="#996515" opacity="0.6" />
      <circle cx="55" cy="25" r="1.2" fill="#B71C1C" opacity="0.4" />
      <circle cx="65" cy="30" r="1" fill="#F4C430" opacity="0.5" />
      <circle cx="75" cy="25" r="0.7" fill="#996515" opacity="0.6" />
      <circle cx="85" cy="30" r="1.3" fill="#B71C1C" opacity="0.4" />
      <circle cx="95" cy="25" r="1" fill="#F4C430" opacity="0.5" />
      
      <circle cx="10" cy="40" r="1" fill="#996515" opacity="0.6" />
      <circle cx="20" cy="45" r="1.5" fill="#B71C1C" opacity="0.4" />
      <circle cx="30" cy="40" r="1" fill="#F4C430" opacity="0.5" />
      <circle cx="40" cy="45" r="0.8" fill="#996515" opacity="0.6" />
      <circle cx="50" cy="40" r="1.2" fill="#B71C1C" opacity="0.4" />
      <circle cx="60" cy="45" r="1" fill="#F4C430" opacity="0.5" />
      <circle cx="70" cy="40" r="0.7" fill="#996515" opacity="0.6" />
      <circle cx="80" cy="45" r="1.3" fill="#B71C1C" opacity="0.4" />
      <circle cx="90" cy="40" r="1" fill="#F4C430" opacity="0.5" />
      
      <circle cx="15" cy="55" r="1" fill="#996515" opacity="0.6" />
      <circle cx="25" cy="60" r="1.5" fill="#B71C1C" opacity="0.4" />
      <circle cx="35" cy="55" r="1" fill="#F4C430" opacity="0.5" />
      <circle cx="45" cy="60" r="0.8" fill="#996515" opacity="0.6" />
      <circle cx="55" cy="55" r="1.2" fill="#B71C1C" opacity="0.4" />
      <circle cx="65" cy="60" r="1" fill="#F4C430" opacity="0.5" />
      <circle cx="75" cy="55" r="0.7" fill="#996515" opacity="0.6" />
      <circle cx="85" cy="60" r="1.3" fill="#B71C1C" opacity="0.4" />
      <circle cx="95" cy="55" r="1" fill="#F4C430" opacity="0.5" />
      
      <circle cx="10" cy="70" r="1" fill="#996515" opacity="0.6" />
      <circle cx="20" cy="75" r="1.5" fill="#B71C1C" opacity="0.4" />
      <circle cx="30" cy="70" r="1" fill="#F4C430" opacity="0.5" />
      <circle cx="40" cy="75" r="0.8" fill="#996515" opacity="0.6" />
      <circle cx="50" cy="70" r="1.2" fill="#B71C1C" opacity="0.4" />
      <circle cx="60" cy="75" r="1" fill="#F4C430" opacity="0.5" />
      <circle cx="70" cy="70" r="0.7" fill="#996515" opacity="0.6" />
      <circle cx="80" cy="75" r="1.3" fill="#B71C1C" opacity="0.4" />
      <circle cx="90" cy="70" r="1" fill="#F4C430" opacity="0.5" />
      
      <circle cx="15" cy="85" r="1" fill="#996515" opacity="0.6" />
      <circle cx="25" cy="90" r="1.5" fill="#B71C1C" opacity="0.4" />
      <circle cx="35" cy="85" r="1" fill="#F4C430" opacity="0.5" />
      <circle cx="45" cy="90" r="0.8" fill="#996515" opacity="0.6" />
      <circle cx="55" cy="85" r="1.2" fill="#B71C1C" opacity="0.4" />
      <circle cx="65" cy="90" r="1" fill="#F4C430" opacity="0.5" />
      <circle cx="75" cy="85" r="0.7" fill="#996515" opacity="0.6" />
      <circle cx="85" cy="90" r="1.3" fill="#B71C1C" opacity="0.4" />
      <circle cx="95" cy="85" r="1" fill="#F4C430" opacity="0.5" />
    </pattern>
  </defs>
  <rect width="100" height="100" fill="url(#spice-grain)" />
</svg>
