<svg width="100" height="100" viewBox="0 0 100 100" xmlns="http://www.w3.org/2000/svg">
  <defs>
    <pattern id="kalamkari" patternUnits="userSpaceOnUse" width="100" height="100">
      <rect width="100" height="100" fill="#FFF3D9" opacity="0.8" />
      <!-- Kalamkari floral motif -->
      <path d="M 50 20 C 60 30, 70 20, 70 30 C 70 40, 60 50, 50 50 C 40 50, 30 40, 30 30 C 30 20, 40 30, 50 20 Z" 
        fill="none" stroke="#B71C1C" stroke-width="1" />
      <circle cx="50" cy="35" r="5" fill="none" stroke="#B71C1C" stroke-width="1" />
      
      <!-- Kalamkari peacock -->
      <path d="M 20 70 C 30 60, 40 70, 30 80 C 20 90, 10 80, 20 70 Z" 
        fill="none" stroke="#26418F" stroke-width="1" />
      <path d="M 25 75 L 15 85" stroke="#26418F" stroke-width="1" />
      <path d="M 25 75 L 20 90" stroke="#26418F" stroke-width="1" />
      <path d="M 25 75 L 30 90" stroke="#26418F" stroke-width="1" />
      
      <!-- Kalamkari mango motif -->
      <path d="M 80 70 C 90 60, 90 80, 80 90 C 70 80, 70 60, 80 70 Z" 
        fill="none" stroke="#2E7D32" stroke-width="1" />
      <path d="M 80 70 L 80 60" stroke="#2E7D32" stroke-width="1" />
      <path d="M 80 60 C 75 55, 85 55, 80 60 Z" fill="none" stroke="#2E7D32" stroke-width="1" />
      
      <!-- Decorative borders -->
      <path d="M 0 0 L 100 0" stroke="#996515" stroke-width="1" stroke-dasharray="5,5" />
      <path d="M 0 100 L 100 100" stroke="#996515" stroke-width="1" stroke-dasharray="5,5" />
      <path d="M 0 0 L 0 100" stroke="#996515" stroke-width="1" stroke-dasharray="5,5" />
      <path d="M 100 0 L 100 100" stroke="#996515" stroke-width="1" stroke-dasharray="5,5" />
    </pattern>
  </defs>
  <rect width="100" height="100" fill="url(#kalamkari)" />
</svg>
