<svg width="100" height="100" viewBox="0 0 100 100" xmlns="http://www.w3.org/2000/svg">
  <defs>
    <pattern id="kolam" patternUnits="userSpaceOnUse" width="100" height="100">
      <rect width="100" height="100" fill="#FFF3D9" />
      
      <!-- Kolam dots grid -->
      <circle cx="20" cy="20" r="2" fill="#996515" />
      <circle cx="40" cy="20" r="2" fill="#996515" />
      <circle cx="60" cy="20" r="2" fill="#996515" />
      <circle cx="80" cy="20" r="2" fill="#996515" />
      
      <circle cx="20" cy="40" r="2" fill="#996515" />
      <circle cx="40" cy="40" r="2" fill="#996515" />
      <circle cx="60" cy="40" r="2" fill="#996515" />
      <circle cx="80" cy="40" r="2" fill="#996515" />
      
      <circle cx="20" cy="60" r="2" fill="#996515" />
      <circle cx="40" cy="60" r="2" fill="#996515" />
      <circle cx="60" cy="60" r="2" fill="#996515" />
      <circle cx="80" cy="60" r="2" fill="#996515" />
      
      <circle cx="20" cy="80" r="2" fill="#996515" />
      <circle cx="40" cy="80" r="2" fill="#996515" />
      <circle cx="60" cy="80" r="2" fill="#996515" />
      <circle cx="80" cy="80" r="2" fill="#996515" />
      
      <!-- Kolam line patterns -->
      <path d="M 20 20 C 30 30, 30 50, 20 60" fill="none" stroke="#2E7D32" stroke-width="1" />
      <path d="M 20 60 C 30 70, 50 70, 60 60" fill="none" stroke="#2E7D32" stroke-width="1" />
      <path d="M 60 60 C 70 50, 70 30, 60 20" fill="none" stroke="#2E7D32" stroke-width="1" />
      <path d="M 60 20 C 50 10, 30 10, 20 20" fill="none" stroke="#2E7D32" stroke-width="1" />
      
      <path d="M 40 20 C 50 30, 50 50, 40 60" fill="none" stroke="#B71C1C" stroke-width="1" />
      <path d="M 40 60 C 50 70, 70 70, 80 60" fill="none" stroke="#B71C1C" stroke-width="1" />
      <path d="M 80 60 C 90 50, 90 30, 80 20" fill="none" stroke="#B71C1C" stroke-width="1" />
      <path d="M 80 20 C 70 10, 50 10, 40 20" fill="none" stroke="#B71C1C" stroke-width="1" />
      
      <!-- Central flower pattern -->
      <circle cx="50" cy="50" r="5" fill="#F4C430" />
      <path d="M 50 45 C 45 40, 55 40, 50 45" fill="none" stroke="#F4C430" stroke-width="1" />
      <path d="M 50 55 C 45 60, 55 60, 50 55" fill="none" stroke="#F4C430" stroke-width="1" />
      <path d="M 45 50 C 40 45, 40 55, 45 50" fill="none" stroke="#F4C430" stroke-width="1" />
      <path d="M 55 50 C 60 45, 60 55, 55 50" fill="none" stroke="#F4C430" stroke-width="1" />
    </pattern>
  </defs>
  <rect width="100" height="100" fill="url(#kolam)" />
</svg>
