<svg width="100" height="100" viewBox="0 0 100 100" xmlns="http://www.w3.org/2000/svg">
  <defs>
    <pattern id="phulkari" patternUnits="userSpaceOnUse" width="100" height="100">
      <rect width="100" height="100" fill="#FFF3D9" />
      
      <!-- Phulkari geometric patterns -->
      <rect x="10" y="10" width="20" height="20" fill="none" stroke="#F4C430" stroke-width="1" />
      <rect x="40" y="10" width="20" height="20" fill="none" stroke="#B71C1C" stroke-width="1" />
      <rect x="70" y="10" width="20" height="20" fill="none" stroke="#F4C430" stroke-width="1" />
      
      <rect x="10" y="40" width="20" height="20" fill="none" stroke="#B71C1C" stroke-width="1" />
      <rect x="40" y="40" width="20" height="20" fill="none" stroke="#F4C430" stroke-width="1" />
      <rect x="70" y="40" width="20" height="20" fill="none" stroke="#B71C1C" stroke-width="1" />
      
      <rect x="10" y="70" width="20" height="20" fill="none" stroke="#F4C430" stroke-width="1" />
      <rect x="40" y="70" width="20" height="20" fill="none" stroke="#B71C1C" stroke-width="1" />
      <rect x="70" y="70" width="20" height="20" fill="none" stroke="#F4C430" stroke-width="1" />
      
      <!-- Phulkari embroidery stitches -->
      <line x1="20" y1="10" x2="20" y2="30" stroke="#F4C430" stroke-width="1" />
      <line x1="10" y1="20" x2="30" y2="20" stroke="#F4C430" stroke-width="1" />
      
      <line x1="50" y1="10" x2="50" y2="30" stroke="#B71C1C" stroke-width="1" />
      <line x1="40" y1="20" x2="60" y2="20" stroke="#B71C1C" stroke-width="1" />
      
      <line x1="80" y1="10" x2="80" y2="30" stroke="#F4C430" stroke-width="1" />
      <line x1="70" y1="20" x2="90" y2="20" stroke="#F4C430" stroke-width="1" />
      
      <line x1="20" y1="40" x2="20" y2="60" stroke="#B71C1C" stroke-width="1" />
      <line x1="10" y1="50" x2="30" y2="50" stroke="#B71C1C" stroke-width="1" />
      
      <line x1="50" y1="40" x2="50" y2="60" stroke="#F4C430" stroke-width="1" />
      <line x1="40" y1="50" x2="60" y2="50" stroke="#F4C430" stroke-width="1" />
      
      <line x1="80" y1="40" x2="80" y2="60" stroke="#B71C1C" stroke-width="1" />
      <line x1="70" y1="50" x2="90" y2="50" stroke="#B71C1C" stroke-width="1" />
      
      <line x1="20" y1="70" x2="20" y2="90" stroke="#F4C430" stroke-width="1" />
      <line x1="10" y1="80" x2="30" y2="80" stroke="#F4C430" stroke-width="1" />
      
      <line x1="50" y1="70" x2="50" y2="90" stroke="#B71C1C" stroke-width="1" />
      <line x1="40" y1="80" x2="60" y2="80" stroke="#B71C1C" stroke-width="1" />
      
      <line x1="80" y1="70" x2="80" y2="90" stroke="#F4C430" stroke-width="1" />
      <line x1="70" y1="80" x2="90" y2="80" stroke="#F4C430" stroke-width="1" />
    </pattern>
  </defs>
  <rect width="100" height="100" fill="url(#phulkari)" />
</svg>
