<svg width="100" height="100" viewBox="0 0 100 100" xmlns="http://www.w3.org/2000/svg">
  <defs>
    <pattern id="rangoli" patternUnits="userSpaceOnUse" width="100" height="100">
      <rect width="100" height="100" fill="#FFF3D9" opacity="0.8" />
      
      <!-- Rangoli center -->
      <circle cx="50" cy="50" r="5" fill="none" stroke="#F97316" stroke-width="1" />
      <circle cx="50" cy="50" r="10" fill="none" stroke="#F97316" stroke-width="1" />
      <circle cx="50" cy="50" r="15" fill="none" stroke="#F97316" stroke-width="1" />
      <circle cx="50" cy="50" r="20" fill="none" stroke="#F97316" stroke-width="1" />
      
      <!-- Rangoli petals -->
      <path d="M 50 30 C 55 35, 55 45, 50 50 C 45 45, 45 35, 50 30 Z" fill="none" stroke="#F97316" stroke-width="1" />
      <path d="M 50 50 C 55 55, 55 65, 50 70 C 45 65, 45 55, 50 50 Z" fill="none" stroke="#F97316" stroke-width="1" />
      <path d="M 30 50 C 35 55, 45 55, 50 50 C 45 45, 35 45, 30 50 Z" fill="none" stroke="#F97316" stroke-width="1" />
      <path d="M 50 50 C 55 45, 65 45, 70 50 C 65 55, 55 55, 50 50 Z" fill="none" stroke="#F97316" stroke-width="1" />
      
      <!-- Rangoli diagonal petals -->
      <path d="M 35 35 C 40 40, 40 45, 50 50 C 45 40, 40 40, 35 35 Z" fill="none" stroke="#F97316" stroke-width="1" />
      <path d="M 50 50 C 55 55, 60 60, 65 65 C 60 60, 55 55, 50 50 Z" fill="none" stroke="#F97316" stroke-width="1" />
      <path d="M 35 65 C 40 60, 45 55, 50 50 C 45 55, 40 60, 35 65 Z" fill="none" stroke="#F97316" stroke-width="1" />
      <path d="M 50 50 C 55 45, 60 40, 65 35 C 60 40, 55 45, 50 50 Z" fill="none" stroke="#F97316" stroke-width="1" />
      
      <!-- Rangoli dots -->
      <circle cx="30" cy="30" r="1" fill="#F97316" />
      <circle cx="30" cy="70" r="1" fill="#F97316" />
      <circle cx="70" cy="30" r="1" fill="#F97316" />
      <circle cx="70" cy="70" r="1" fill="#F97316" />
      
      <circle cx="25" cy="50" r="1" fill="#F97316" />
      <circle cx="75" cy="50" r="1" fill="#F97316" />
      <circle cx="50" cy="25" r="1" fill="#F97316" />
      <circle cx="50" cy="75" r="1" fill="#F97316" />
    </pattern>
  </defs>
  <rect width="100" height="100" fill="url(#rangoli)" />
</svg>
