<svg width="100" height="100" viewBox="0 0 100 100" xmlns="http://www.w3.org/2000/svg">
  <defs>
    <pattern id="warli" patternUnits="userSpaceOnUse" width="100" height="100">
      <rect width="100" height="100" fill="#FFF3D9" />
      <!-- Warli human figure -->
      <circle cx="30" cy="30" r="5" fill="none" stroke="#996515" stroke-width="1" />
      <line x1="30" y1="35" x2="30" y2="50" stroke="#996515" stroke-width="1" />
      <line x1="30" y1="40" x2="20" y2="45" stroke="#996515" stroke-width="1" />
      <line x1="30" y1="40" x2="40" y2="45" stroke="#996515" stroke-width="1" />
      <line x1="30" y1="50" x2="20" y2="60" stroke="#996515" stroke-width="1" />
      <line x1="30" y1="50" x2="40" y2="60" stroke="#996515" stroke-width="1" />
      
      <!-- Warli tree -->
      <line x1="70" y1="30" x2="70" y2="60" stroke="#2E7D32" stroke-width="1" />
      <path d="M 70 30 L 60 40 L 80 40 Z" fill="none" stroke="#2E7D32" stroke-width="1" />
      <path d="M 70 40 L 55 50 L 85 50 Z" fill="none" stroke="#2E7D32" stroke-width="1" />
      
      <!-- Warli hut -->
      <path d="M 20 70 L 30 80 L 40 70 Z" fill="none" stroke="#A97444" stroke-width="1" />
      <rect x="25" y="80" width="10" height="10" fill="none" stroke="#A97444" stroke-width="1" />
      
      <!-- Warli sun -->
      <circle cx="80" cy="80" r="10" fill="none" stroke="#F4C430" stroke-width="1" />
      <line x1="80" y1="65" x2="80" y2="70" stroke="#F4C430" stroke-width="1" />
      <line x1="80" y1="90" x2="80" y2="95" stroke="#F4C430" stroke-width="1" />
      <line x1="65" y1="80" x2="70" y2="80" stroke="#F4C430" stroke-width="1" />
      <line x1="90" y1="80" x2="95" y2="80" stroke="#F4C430" stroke-width="1" />
      <line x1="70" y1="70" x2="73" y2="73" stroke="#F4C430" stroke-width="1" />
      <line x1="87" y1="87" x2="90" y2="90" stroke="#F4C430" stroke-width="1" />
      <line x1="70" y1="90" x2="73" y2="87" stroke="#F4C430" stroke-width="1" />
      <line x1="87" y1="73" x2="90" y2="70" stroke="#F4C430" stroke-width="1" />
    </pattern>
  </defs>
  <rect width="100" height="100" fill="url(#warli)" />
</svg>
